HIERARCHY
ROOT Hips
{
	OFFSET 0.000000 0.000000 0.000000
	CHANNELS 6 Xposition Yposition Zposition Xrotation Yrotation Zrotation
	JOINT LeftUpLeg_virtual
	{
		OFFSET 0.000000 0.000000 0.000000
		CHANNELS 3 Xrotation Yrotation Zrotation
		JOINT LeftUpLeg
		{
			OFFSET 15.427100 -6.655098 0.678600
			CHANNELS 3 Xrotation Yrotation Zrotation
			JOINT LeftLeg
			{
				OFFSET 4.081073 -39.591068 13.024000
				CHANNELS 3 Xrotation Yrotation Zrotation
				JOINT LeftFoot
				{
					OFFSET -4.081074 -37.707932 -15.979700
					CHANNELS 3 Xrotation Yrotation Zrotation
					JOINT LeftToeBase
					{
						OFFSET 5.346399 -15.068900 20.645000
						CHANNELS 3 Xrotation Yrotation Zrotation
						JOINT LeftToe_End
						{
							OFFSET 2.754700 0.931300 11.300900
							CHANNELS 3 Xrotation Yrotation Zrotation
							End Site
							{
								OFFSET 0 0 0
							}
						}
					}
				}
			}
		}
	}
	JOINT RightUpLeg_virtual
	{
		OFFSET 0.000000 0.000000 0.000000
		CHANNELS 3 Xrotation Yrotation Zrotation
		JOINT RightUpLeg
		{
			OFFSET -15.569500 -6.655098 0.678600
			CHANNELS 3 Xrotation Yrotation Zrotation
			JOINT RightLeg
			{
				OFFSET -4.081825 -39.591045 13.023800
				CHANNELS 3 Xrotation Yrotation Zrotation
				JOINT RightFoot
				{
					OFFSET 4.081824 -37.707954 -15.979600
					CHANNELS 3 Xrotation Yrotation Zrotation
					JOINT RightToeBase
					{
						OFFSET -5.346400 -15.068900 20.645000
						CHANNELS 3 Xrotation Yrotation Zrotation
						JOINT RightToe_End
						{
							OFFSET -2.754700 0.931300 11.300900
							CHANNELS 3 Xrotation Yrotation Zrotation
							End Site
							{
								OFFSET 0 0 0
							}
						}
					}
				}
			}
		}
	}
	JOINT Spine_virtual
	{
		OFFSET 0.000000 0.000000 0.000000
		CHANNELS 3 Xrotation Yrotation Zrotation
		JOINT Spine
		{
			OFFSET -0.279200 12.230698 -2.892100
			CHANNELS 3 Xrotation Yrotation Zrotation
			JOINT Spine1
			{
				OFFSET -0.232667 10.192268 -1.242267
				CHANNELS 3 Xrotation Yrotation Zrotation
				JOINT Spine1_split
				{
					OFFSET -0.232667 10.192268 -1.242267
					CHANNELS 3 Xrotation Yrotation Zrotation
					JOINT Spine2
					{
						OFFSET -0.232667 10.192268 -1.242267
						CHANNELS 3 Xrotation Yrotation Zrotation
						JOINT Neck_virtual
						{
							OFFSET 0.000000 0.000000 0.000000
							CHANNELS 3 Xrotation Yrotation Zrotation
							JOINT Neck
							{
								OFFSET -0.418800 17.814194 8.416900
								CHANNELS 3 Xrotation Yrotation Zrotation
								JOINT Head
								{
									OFFSET 0.000000 7.031097 3.806800
									CHANNELS 3 Xrotation Yrotation Zrotation
									JOINT HeadTop_End
									{
										OFFSET 0.000000 24.646606 12.978600
										CHANNELS 3 Xrotation Yrotation Zrotation
										End Site
										{
											OFFSET 0 0 0
										}
									}
								}
							}
						}
						JOINT LeftShoulder_virtual
						{
							OFFSET 0.000000 0.000000 0.000000
							CHANNELS 3 Xrotation Yrotation Zrotation
							JOINT LeftShoulder
							{
								OFFSET 8.476499 7.247704 -3.868750
								CHANNELS 3 Xrotation Yrotation Zrotation
								JOINT LeftShoulder_split
								{
									OFFSET 8.476499 7.247704 -3.868750
									CHANNELS 3 Xrotation Yrotation Zrotation
									JOINT LeftArm
									{
										OFFSET 9.308998 -2.777710 0.208600
										CHANNELS 3 Xrotation Yrotation Zrotation
										JOINT LeftForeArm
										{
											OFFSET 29.972298 0.000000 0.000000
											CHANNELS 3 Xrotation Yrotation Zrotation
											JOINT LeftHand
											{
												OFFSET 26.026505 0.000000 0.000000
												CHANNELS 3 Xrotation Yrotation Zrotation
												End Site
												{
													OFFSET 0 0 0
												}
											}
										}
									}
								}
							}
						}
						JOINT RightShoulder_virtual
						{
							OFFSET 0.000000 0.000000 0.000000
							CHANNELS 3 Xrotation Yrotation Zrotation
							JOINT RightShoulder
							{
								OFFSET -7.570500 7.247704 -3.868750
								CHANNELS 3 Xrotation Yrotation Zrotation
								JOINT RightShoulder_split
								{
									OFFSET -7.570500 7.247704 -3.868750
									CHANNELS 3 Xrotation Yrotation Zrotation
									JOINT RightArm
									{
										OFFSET -9.308998 -2.777710 0.208500
										CHANNELS 3 Xrotation Yrotation Zrotation
										JOINT RightForeArm
										{
											OFFSET -29.972300 0.000000 0.000000
											CHANNELS 3 Xrotation Yrotation Zrotation
											JOINT RightHand
											{
												OFFSET -26.026505 0.000000 0.000000
												CHANNELS 3 Xrotation Yrotation Zrotation
												End Site
												{
													OFFSET 0 0 0
												}
											}
										}
									}
								}
							}
						}
					}
				}
			}
		}
	}
}
MOTION
Frames: 8
Frame Time: 0.03333333
2.132140 86.415672 -3.220051 0.000000 0.000000 0.000000 3.184706 -9.900366 -1.198865 -31.664788 5.196081 8.185357 26.215381 2.145147 3.262136 0.195458 -0.767936 -4.578919 2.483640 -1.347183 -1.531726 0.000000 0.000000 0.000000 2.966463 -10.517994 -1.172937 -7.529143 -12.473230 -16.336086 24.571769 -8.837576 3.075907 -19.230976 -4.962060 14.824222 1.230704 0.747723 1.156774 0.000000 0.000000 0.000000 4.075738 -9.334837 -1.603700 21.464179 5.059191 1.712114 1.873472 1.993616 -0.451801 0.500338 -0.374031 0.262493 0.000000 0.000000 0.000000 2.595671 2.035761 -0.157081 -5.448779 16.326657 1.466514 7.861584 48.343959 -21.667675 0.000000 0.000000 0.000000 2.841999 2.330804 -0.429094 2.218349 -35.015795 5.812226 0.327855 0.627966 -4.663560 -25.063381 -15.809202 -66.618318 -0.319175 -45.718732 -7.865618 0.000000 0.000000 0.000000 3.380376 2.095150 -0.396527 8.584896 21.358772 -10.250275 -1.147626 3.658175 0.322094 -42.657328 14.578035 82.100875 -0.694624 53.117965 2.887262 0.000000 0.000000 0.000000 
2.299076 86.438095 -2.611183 0.000000 0.000000 0.000000 3.217635 -9.169547 -1.332328 -31.690302 5.323063 7.761741 26.496339 1.792653 3.280621 -0.309563 -0.743885 -4.219108 2.414853 -1.376816 -1.477652 0.000000 0.000000 0.000000 2.983384 -9.837681 -1.304417 -6.741597 -12.447084 -16.431104 24.131504 -9.461257 3.010714 -19.225700 -5.091384 15.441651 1.233505 0.681853 1.238621 0.000000 0.000000 0.000000 4.165206 -8.632977 -1.712765 21.270541 5.135767 1.343562 1.823703 2.090430 -0.635895 0.500190 -0.364451 0.236067 0.000000 0.000000 0.000000 2.565055 2.130121 -0.372120 -5.494161 16.191546 1.777946 6.926916 48.003280 -20.762266 0.000000 0.000000 0.000000 2.851944 2.415635 -0.685533 2.078901 -35.564679 5.770292 0.100731 0.576270 -4.960300 -24.684546 -15.743690 -66.452659 -0.256449 -45.501692 -6.742785 0.000000 0.000000 0.000000 3.396299 2.232091 -0.636492 8.430222 20.484287 -9.981884 -0.897118 3.801992 0.288118 -42.984320 15.145752 83.051699 -0.698774 52.564699 2.470946 0.000000 0.000000 0.000000 
2.439123 86.451729 -2.008568 0.000000 0.000000 0.000000 3.273928 -8.527648 -1.408220 -31.726929 5.389779 7.360618 26.828375 1.516833 3.301513 -0.806529 -0.705615 -3.923370 2.353402 -1.404799 -1.425301 0.000000 0.000000 0.000000 3.016385 -9.261055 -1.373338 -6.079944 -12.365753 -16.552864 23.782623 -9.986044 2.900090 -19.235814 -5.212222 16.050301 1.198705 0.627499 1.311813 0.000000 0.000000 0.000000 4.278819 -8.035231 -1.756990 21.075133 5.155983 0.940114 1.784672 2.167490 -0.814291 0.511307 -0.347565 0.229457 0.000000 0.000000 0.000000 2.545640 2.207206 -0.585178 -5.588296 15.947855 2.129928 5.720029 47.477622 -19.550064 0.000000 0.000000 0.000000 2.861607 2.483100 -0.935132 1.938740 -36.078582 5.734746 -0.085783 0.556253 -5.190229 -24.102792 -15.831962 -66.236101 -0.234832 -45.450732 -5.662074 0.000000 0.000000 0.000000 3.407338 2.349311 -0.863925 8.320538 19.859520 -9.788867 -0.729775 3.897362 0.307607 -43.213856 15.499501 83.863317 -0.780463 52.186556 2.203890 0.000000 0.000000 0.000000 
2.555178 86.452225 -1.437344 0.000000 0.000000 0.000000 3.359664 -7.976315 -1.437306 -31.786126 5.369579 6.979132 27.214474 1.304769 3.331977 -1.278710 -0.659714 -3.707378 2.316493 -1.429534 -1.384746 0.000000 0.000000 0.000000 3.077268 -8.771157 -1.392577 -5.525137 -12.237220 -16.681653 23.488933 -10.427997 2.745983 -19.311624 -5.332338 16.611768 1.179287 0.589010 1.372470 0.000000 0.000000 0.000000 4.419692 -7.544411 -1.758151 20.884864 5.112122 0.509679 1.752842 2.221961 -0.982760 0.497605 -0.302461 0.238196 0.000000 0.000000 0.000000 2.526864 2.264203 -0.793561 -5.742846 15.622208 2.537791 4.357431 46.843391 -18.077556 0.000000 0.000000 0.000000 2.870492 2.531438 -1.168424 1.815827 -36.581380 5.748204 -0.230957 0.572896 -5.355879 -23.347137 -16.053736 -65.992161 -0.252580 -45.550241 -4.639678 0.000000 0.000000 0.000000 3.414490 2.443413 -1.071456 8.248171 19.477934 -9.664886 -0.624198 3.949069 0.338016 -43.307067 15.630379 84.502049 -0.903255 51.923641 2.049382 0.000000 0.000000 0.000000 
2.659834 86.443680 -0.887360 0.000000 0.000000 0.000000 3.484033 -7.519018 -1.433065 -31.871196 5.253832 6.616473 27.641859 1.150207 3.377599 -1.731963 -0.605072 -3.573296 2.319483 -1.449470 -1.364790 0.000000 0.000000 0.000000 3.174040 -8.363199 -1.376828 -5.062626 -12.081175 -16.797008 23.242478 -10.817076 2.563918 -19.454288 -5.461743 17.086765 1.222172 0.570202 1.415671 0.000000 0.000000 0.000000 4.581888 -7.171155 -1.731578 20.710530 5.006700 0.066778 1.728544 2.250218 -1.137880 0.477617 -0.231706 0.252196 0.000000 0.000000 0.000000 2.505152 2.300113 -0.993065 -5.961740 15.244473 3.022223 2.948645 46.178748 -16.420246 0.000000 0.000000 0.000000 2.878935 2.555116 -1.379930 1.717924 -37.097848 5.823077 -0.348946 0.683895 -5.477229 -22.476790 -16.378015 -65.757790 -0.305896 -45.740411 -3.677539 0.000000 0.000000 0.000000 3.418473 2.511702 -1.259719 8.207580 19.312643 -9.610168 -0.573736 3.972161 0.353486 -43.271868 15.538612 84.946530 -1.040882 51.762332 1.971689 0.000000 0.000000 0.000000 
2.754717 86.428818 -0.378407 0.000000 0.000000 0.000000 3.642049 -7.148677 -1.410327 -31.971730 5.062134 6.280281 28.074519 1.052089 3.437087 -2.176908 -0.544663 -3.514685 2.354932 -1.463785 -1.361716 0.000000 0.000000 0.000000 3.302533 -8.033569 -1.341430 -4.698716 -11.922471 -16.894680 23.036099 -11.164246 2.375875 -19.617743 -5.597851 17.481514 1.319055 0.572359 1.432823 0.000000 0.000000 0.000000 4.754685 -6.908369 -1.689170 20.564916 4.849193 -0.371566 1.703554 2.250746 -1.279507 0.479788 -0.149395 0.254253 0.000000 0.000000 0.000000 2.478001 2.313343 -1.182030 -6.242997 14.844072 3.574906 1.583892 45.549268 -14.676808 0.000000 0.000000 0.000000 2.886031 2.553431 -1.570119 1.647590 -37.648877 5.944814 -0.504490 0.867388 -5.569283 -21.513269 -16.776125 -65.540105 -0.391420 -45.954882 -2.772684 0.000000 0.000000 0.000000 3.421414 2.549946 -1.429746 8.191284 19.323242 -9.619855 -0.554358 4.041760 0.306536 -43.134769 15.288646 85.234880 -1.169580 51.712855 1.941550 0.000000 0.000000 0.000000 
2.836519 86.413368 0.089741 0.000000 0.000000 0.000000 3.827483 -6.862906 -1.376773 -32.077543 4.832258 5.981417 28.468228 1.005028 3.501664 -2.598718 -0.486015 -3.526581 2.392800 -1.471999 -1.365254 0.000000 0.000000 0.000000 3.452430 -7.769698 -1.296440 -4.442156 -11.785791 -16.980303 22.848110 -11.460923 2.198169 -19.740743 -5.727648 17.847277 1.403651 0.592756 1.418557 0.000000 0.000000 0.000000 4.933356 -6.751721 -1.635324 20.456895 4.655763 -0.789487 1.672656 2.226680 -1.408031 0.463124 -0.076825 0.236979 0.000000 0.000000 0.000000 2.451702 2.307445 -1.358627 -6.576742 14.456673 4.176684 0.305887 45.011998 -12.959765 0.000000 0.000000 0.000000 2.895125 2.528364 -1.737755 1.600764 -38.242417 6.091692 -0.709216 1.111296 -5.653953 -20.513867 -17.187442 -65.367834 -0.527857 -46.122475 -1.930452 0.000000 0.000000 0.000000 3.424505 2.560130 -1.582846 8.195537 19.467035 -9.687158 -0.531946 4.183398 0.223320 -42.928668 14.947241 85.418018 -1.266029 51.756940 1.935920 0.000000 0.000000 0.000000 
2.906775 86.401894 0.502666 0.000000 0.000000 0.000000 4.025711 -6.651292 -1.334954 -32.192072 4.602471 5.729563 28.795377 0.999880 3.561250 -2.965237 -0.433035 -3.600035 2.409773 -1.475848 -1.366170 0.000000 0.000000 0.000000 3.620139 -7.571325 -1.244270 -4.287863 -11.681747 -17.063278 22.667029 -11.698616 2.038889 -19.801849 -5.836911 18.199614 1.431134 0.627680 1.375764 0.000000 0.000000 0.000000 5.109235 -6.696269 -1.564845 20.388461 4.445160 -1.174098 1.636259 2.184670 -1.522453 0.457385 -0.033779 0.223623 0.000000 0.000000 0.000000 2.431306 2.289815 -1.520195 -6.949200 14.105554 4.777878 -0.857163 44.598881 -11.383962 0.000000 0.000000 0.000000 2.903426 2.489626 -1.884692 1.565481 -38.866911 6.222406 -0.960827 1.379846 -5.728250 -19.539392 -17.579268 -65.258052 -0.691340 -46.193840 -1.136237 0.000000 0.000000 0.000000 3.430045 2.550660 -1.720268 8.212703 19.695458 -9.797822 -0.469710 4.350814 0.135575 -42.677863 14.580806 85.535880 -1.322753 51.882124 1.937113 0.000000 0.000000 0.000000 
